<svg xmlns="http://www.w3.org/2000/svg" xmlns:xlink="http://www.w3.org/1999/xlink" width="13" height="15" viewBox="0 0 13 15">
    <defs>
        <path id="a" d="M0 .155h12.695v14.012H0"/>
    </defs>
    <g fill="none" fill-rule="evenodd" opacity=".5">
        <path fill="#4C4C4C" d="M2.68 7.312s.723-.074 1.225-.52l.028.074c.275.626.575 1.141.882 1.523.002.043.03.627-.492 1.105l-.065.017c.03.222.282 1.503 2.054 1.503h.022c1.675-.01 1.97-1.215 2.011-1.444l-.03-.006c-.161-.235-.343-.628-.382-1.238a5.48 5.48 0 0 0 .813-1.414c.485.34 1.078.4 1.078.4s.362-1.72.254-3.462c-.05-.848-.214-1.703-.585-2.364C8.343-.577 5.859.373 5.859.373h-.203S3.743.094 3.008 1.486c-.245.464-.442 1.016-.477 1.6-.075 1.22.092 1.568.19 2.55.1.984-.042 1.676-.042 1.676"/>
        <g>
            <mask id="b" fill="#fff">
                <use xlink:href="#a"/>
            </mask>
            <path fill="#4C4C4C" d="M12.022 11.022a1.384 1.384 0 0 0-.947-.783l-2.1-.514c-.097.442-.584 1.941-2.638 1.953H6.31c-2.117 0-2.583-1.513-2.68-1.996l-2.033.547c-.412.11-.75.397-.916.774-.276.639-.672 1.585-.68 1.809-.009.301.184.57.482.673.737.252 2.421.646 5.757.678v.004l.11-.002.107.002v-.004c3.335-.032 5.02-.426 5.757-.678a.693.693 0 0 0 .481-.673c-.005-.222-.395-1.153-.672-1.79" mask="url(#b)"/>
        </g>
    </g>
</svg>
