<svg xmlns="http://www.w3.org/2000/svg" width="14" height="16" viewBox="0 0 14 16">
    <g fill="#808080" fill-rule="evenodd">
        <path d="M3.866 4.636c-.056-.031-.128-.035-.222.028-.288.196.107 1.773.383 1.986.08.061.157.06.227.031.04.118.08.235.13.344.216.49.45.916.69 1.268l-.07-.006c.245.405.8 1 1.966 1 1.2 0 1.656-.678 1.988-1.173.054-.081.104-.155.152-.22a5.77 5.77 0 0 0 .434-.869c.04-.105.076-.215.11-.327a.214.214 0 0 0 .166-.048c.276-.213.671-1.79.383-1.986-.077-.052-.14-.06-.191-.043.084-.483.145-.768.145-.768.42-2.19-2.083-4.042-4.03-3.596C4.887.54 4.543 1.36 4.543 1.36 3.107 1.531 3.49 3.35 3.49 3.35l.376 1.286zM13.827 12.72c-.105-.973-.67-1.235-.67-1.235L9.351 10.31a1.89 1.89 0 0 0-.04-.216c-.425.508-1.114 1.06-2.342 1.06-1.138 0-1.898-.462-2.375-.98-.01.045-.02.091-.024.136L.767 11.485S.2 11.747.096 12.72A19.724 19.724 0 0 0 0 14.206c-.01.34.2.646.52.76.812.291 2.685.752 6.441.77 3.757-.018 5.629-.479 6.442-.77.32-.114.53-.42.52-.76-.012-.39-.038-.947-.096-1.485"/>
    </g>
</svg>
